<?xml version="1.0" standalone="no"?>
<!DOCTYPE svg PUBLIC "-//W3C//DTD SVG 20010904//EN"
 "http://www.w3.org/TR/2001/REC-SVG-20010904/DTD/svg10.dtd">
<svg version="1.0" xmlns="http://www.w3.org/2000/svg"
 width="16.000000pt" height="16.000000pt" viewBox="0 0 16.000000 16.000000"
 preserveAspectRatio="xMidYMid meet">
<metadata>
Created by potrace 1.11, written by Peter Selinger 2001-2013
</metadata>
<g transform="translate(0.000000,16.000000) scale(0.006154,-0.006154)"
fill="#000000" stroke="none">
<path d="M1034 2096 c-17 -12 -22 -30 -27 -93 -4 -43 -9 -98 -12 -123 -2 -25
-9 -94 -15 -155 -6 -60 -20 -182 -31 -270 -23 -185 -27 -611 -8 -723 15 -84
68 -172 104 -172 13 0 26 -4 30 -10 3 -5 30 -17 60 -26 51 -16 55 -16 80 0
l26 17 -7 257 -7 257 56 18 c78 25 142 72 215 158 76 90 120 173 161 301 60
189 75 336 38 366 -27 22 -142 75 -190 88 -86 22 -115 12 -198 -72 -40 -41
-76 -74 -80 -74 -4 0 -7 44 -8 98 -3 132 -21 157 -119 168 -33 4 -53 1 -68
-10z m421 -363 c-19 -203 -55 -320 -130 -417 -65 -85 -82 -96 -91 -61 -11 44
3 258 19 295 24 57 184 260 205 260 2 0 1 -35 -3 -77z"/>
</g>
</svg>
