<?xml version="1.0" standalone="no"?>
<!DOCTYPE svg PUBLIC "-//W3C//DTD SVG 20010904//EN"
 "http://www.w3.org/TR/2001/REC-SVG-20010904/DTD/svg10.dtd">
<svg version="1.0" xmlns="http://www.w3.org/2000/svg"
 width="700.000000pt" height="700.000000pt" viewBox="0 0 700.000000 700.000000"
 preserveAspectRatio="xMidYMid meet">
<metadata>
Created by potrace 1.11, written by Peter Selinger 2001-2013
</metadata>
<g transform="translate(0.000000,700.000000) scale(0.100000,-0.100000)"
fill="#000000" stroke="none">
<path d="M1808 6705 c-2 -1 -40 -5 -85 -9 -269 -21 -592 -129 -833 -279 -166
-104 -363 -281 -476 -427 -169 -220 -297 -503 -358 -792 -39 -183 -50 -300
-51 -523 0 -154 9 -326 20 -358 2 -7 6 -30 9 -52 45 -347 234 -836 484 -1250
187 -310 483 -691 761 -979 93 -95 303 -304 362 -358 89 -81 197 -178 229
-204 19 -16 42 -36 50 -44 8 -9 51 -45 95 -80 44 -35 91 -74 105 -87 37 -32
171 -137 285 -223 55 -41 102 -77 105 -80 3 -3 21 -16 40 -30 19 -13 40 -28
45 -33 61 -51 528 -367 777 -525 l126 -80 54 33 c29 19 73 46 98 61 111 68
620 409 665 446 9 8 36 28 144 106 14 9 50 36 80 59 31 24 67 51 81 62 252
191 516 413 746 626 92 85 328 322 414 416 173 187 216 238 361 424 468 601
751 1209 835 1800 30 210 24 591 -11 765 -3 14 -7 36 -10 50 -19 102 -29 145
-51 215 -123 394 -327 702 -620 935 -260 207 -536 327 -909 394 -158 29 -475
26 -640 -5 -27 -5 -66 -12 -85 -15 -19 -3 -38 -8 -42 -11 -5 -2 -16 -6 -26 -8
-38 -7 -149 -44 -227 -75 -136 -54 -282 -139 -400 -233 -68 -54 -219 -210
-255 -264 -17 -23 -43 -62 -59 -85 -30 -44 -96 -172 -126 -243 l-17 -40 -28
70 c-42 106 -139 266 -215 355 -78 92 -286 280 -310 280 -4 0 -27 14 -52 31
-154 107 -452 214 -673 244 -25 3 -58 8 -75 12 -29 6 -331 13 -337 8z"/>
</g>
</svg>
